<?xml version="1.0" encoding="UTF-8"?>
<svg id="Layer_4" data-name="Layer 4" xmlns="http://www.w3.org/2000/svg" xmlns:xlink="http://www.w3.org/1999/xlink" viewBox="0 0 640.16 420.31">
  <defs>
    <style>
      .cls-1 {
        fill: url(#linear-gradient);
      }

      .cls-1, .cls-2, .cls-3, .cls-4, .cls-5, .cls-6, .cls-7, .cls-8, .cls-9, .cls-10, .cls-11, .cls-12, .cls-13, .cls-14, .cls-15 {
        stroke-width: 0px;
      }

      .cls-2 {
        fill: #008aff;
      }

      .cls-3 {
        fill: #bbd1f5;
      }

      .cls-4 {
        fill: #ffc804;
      }

      .cls-5 {
        fill: #ff9d1c;
      }

      .cls-6 {
        fill: #fff;
      }

      .cls-7 {
        fill: url(#linear-gradient-2);
      }

      .cls-8 {
        fill: #00b554;
      }

      .cls-9 {
        fill: #ff8561;
      }

      .cls-10 {
        fill: #0061e8;
      }

      .cls-11 {
        fill: #ffa882;
      }

      .cls-12 {
        fill: #e9efff;
      }

      .cls-13 {
        fill: #2d91ce;
      }

      .cls-14 {
        fill: #008a32;
      }

      .cls-15 {
        fill: #2f3c68;
      }
    </style>
    <linearGradient id="linear-gradient" x1="556.38" y1="358.91" x2="556.38" y2="420.31" gradientUnits="userSpaceOnUse">
      <stop offset="0" stop-color="#1e6124"/>
      <stop offset=".01" stop-color="#06832f"/>
      <stop offset=".02" stop-color="#008c32"/>
    </linearGradient>
    <linearGradient id="linear-gradient-2" x1="283.67" y1="388.49" x2="283.67" xlink:href="#linear-gradient"/>
  </defs>
  <g>
    <path class="cls-12" d="M629.33,418.97H49.83c-29.66.82-42.78-24.24-47.42-46.69-6.14-29.7-1.11-63.35,21.46-83.12,10.25-8.98,23.52-15.54,29.12-28.11,4.94-11.1,2.5-24.26-2.22-35.46-4.72-11.2-11.58-21.39-15.8-32.8-8.53-23.04-5.09-50.35,8.86-70.42,13.95-20.07,38.01-32.29,62.03-31.53,20.58.66,41.95,1.33,58.91-10.65,16.96-11.98,29.7-29.09,44.33-43.96,15.77-16.04,34.63-29.93,56.35-34.68,21.72-4.75,46.62,1.23,60.5,19.01,11.15,14.29,14.73,34.89,29.43,45.26,15.01,10.59,34.25,6.12,51.18,5.77,15.74-.32,34.87,1.73,47.85,11.37,10.2,7.57,17.89,18.08,25.95,28,8.07,9.92,17.02,19.65,28.56,24.8,11.91,5.31,25.44,5.24,37.84,9.2,27.01,8.64,45.98,38.35,42.92,67.19-2.04,19.21-12.6,37.16-11.7,56.46.86,18.38,11.98,34.49,23.96,48.19,11.98,13.7,25.5,26.56,33.1,43.23,7.6,16.67,7.56,46.53-5.72,58.91Z"/>
    <path class="cls-3" d="M580.99,418.97H94.96c-10.42-4.7-20.57-9.94-29.74-16.8-13.49-10.08-24.85-24.16-28.48-40.86-3.6-16.56,1.86-34.16,14.39-45.3,12.17-10.82,26.05-13.2,30.97-31.44,3.71-13.74,1.33-28.36-1.5-42.32-2.82-13.96-6.1-28.21-4.1-42.32,3.02-21.33,19.05-40.12,39.26-46.01,16.6-4.84,34.98-1.55,50.98-8.19,16.92-7.03,27.9-23.74,36.83-40.08,8.94-16.33,17.42-33.85,32.18-44.86,13.97-10.42,32.81-13.61,49.31-8.35,16.49,5.26,30.25,18.85,35.99,35.56,2.78,8.08,3.9,17.04,8.98,23.84,18.07,24.21,57.77,3.76,81.17,5.5,12.65.95,25.65,6.95,31.85,18.29,11.32,20.68,6.47,43.38,29.84,56.29,9.66,5.34,20.46,8.06,30.59,12.39,30.94,13.24,29.82,39.09,25.95,69.07-2,15.52-2.59,32.67,6.43,45.31,9.12,12.78,25.52,17.39,37.48,27.41,11.58,9.7,18.68,24.79,18.9,40.12.17,11.85-4.18,23.21-11.25,32.76Z"/>
  </g>
  <g>
    <path class="cls-15" d="M120.44,223.66c-8.39,3.46-18.24,2.26-25.46-3.26-2.45-1.87-4.56-4.17-6.22-6.77,1.3-.49,2.56-1.13,3.75-1.93,3.46-2.34,6.47-6.51,5.52-10.9-.86-3.97-4.6-6.98-8.69-5.53-4.6,1.63-6.04,6.85-5.19,11.23.42,2.18,1.23,4.29,2.3,6.28-5.48,1.42-11.69.24-16.46-2.71-8.06-4.99-12.18-14.45-13.19-23.58-.11-.99-1.63-.77-1.53.21,1,9.04,4.94,18.3,12.51,23.74,5.49,3.95,12.93,5.55,19.45,3.7,1.03,1.66,2.24,3.2,3.56,4.57,6.82,7.11,17.11,10.08,26.67,7.56,1.22-.32,2.42-.72,3.59-1.2.92-.38.31-1.79-.61-1.41ZM87.35,211.1c-1.83-3.78-3.17-8.95-.14-12.5,1.23-1.43,3.12-2.44,5.04-2.11,1.78.3,3.15,1.7,3.85,3.31,1.68,3.86-.76,7.84-3.81,10.17-1.33,1.02-2.79,1.79-4.32,2.34-.22-.4-.43-.8-.62-1.2Z"/>
    <path class="cls-15" d="M585.03,277.12c-2.15-.56-4.37-.76-6.58-.66-1.04-3.42-3.13-6.45-5.8-8.85-8.17-7.38-19.82-7.81-30.08-5.65-1.47.31-2.93.67-4.38,1.06-.94.25-.74,1.78.21,1.53,9.57-2.58,20.37-3.77,29.33,1.4,3.65,2.11,6.83,5.21,8.56,9.1.23.51.42,1.03.59,1.55-1.92.22-3.82.69-5.62,1.37-4.29,1.63-8.69,4.74-10.48,9.11-.86,2.1-.98,4.51.27,6.49,1.02,1.61,2.78,2.53,4.64,2.79,4.22.61,8.2-1.75,10.57-5.12,2.45-3.48,3.34-7.95,2.77-12.14-.05-.37-.12-.74-.19-1.11,1.13-.04,2.26.01,3.38.16,9.55,1.23,17.07,9.6,17.77,19.12.07.99,1.6.77,1.53-.21-.68-9.24-7.49-17.6-16.48-19.93ZM576.9,286.5c-1.15,3.56-3.72,6.95-7.43,8.04-3.44,1.01-8.1-.27-7.81-4.63.29-4.38,4.51-7.78,8.13-9.61,2.34-1.18,4.9-1.93,7.51-2.21.6,2.77.48,5.72-.39,8.41Z"/>
  </g>
  <g>
    <path class="cls-2" d="M123.46,262.12c.01,5.08-4.1,9.21-9.18,9.22-5.08.01-9.21-4.1-9.22-9.18-.01-5.08,4.1-9.21,9.18-9.22,5.08-.01,9.21,4.1,9.22,9.18Z"/>
    <path class="cls-4" d="M77.97,161.43c0,3.27-2.63,5.92-5.9,5.93-3.27,0-5.92-2.63-5.93-5.9,0-3.27,2.63-5.92,5.9-5.93,3.27,0,5.92,2.63,5.93,5.9Z"/>
    <path class="cls-2" d="M563.37,235.04c.01,6.43-5.18,11.65-11.61,11.66-6.43.01-11.65-5.18-11.66-11.61-.01-6.43,5.18-11.65,11.61-11.66,6.43-.01,11.65,5.18,11.66,11.61Z"/>
    <path class="cls-2" d="M297.77,121.54c.01,5.73-4.62,10.38-10.35,10.4-5.73.01-10.38-4.62-10.4-10.35-.01-5.73,4.62-10.38,10.35-10.4,5.73-.01,10.38,4.62,10.4,10.35Z"/>
  </g>
  <g>
    <g>
      <path class="cls-15" d="M517.92,161.73h-87.55l-73.49-70.27-73.23,70.27h-87.82l-31.55,48.29h31.55s157.17,38.85,161.04,38.06c3.88.79,161.04-38.06,161.04-38.06h31.55l-31.55-48.29Z"/>
      <polygon class="cls-6" points="517.92 210.02 517.92 306.75 195.84 306.75 195.84 210.02 300.9 210.02 300.9 163.8 356.88 108.99 412.85 163.8 412.85 210.02 517.92 210.02"/>
      <polygon class="cls-3" points="324.28 210.02 324.28 174.61 357.04 142.53 389.8 174.61 389.8 210.02 324.28 210.02"/>
      <polygon class="cls-12" points="412.85 163.8 412.85 171.33 354.96 119.47 300.9 170.97 300.9 163.8 356.88 108.99 412.85 163.8"/>
      <rect class="cls-6" x="195.84" y="318.03" width="322.08" height="100.98"/>
      <rect class="cls-12" x="195.84" y="318.03" width="322.08" height="14.24"/>
      <g>
        <g>
          <rect class="cls-15" x="208.58" y="224.23" width="35.9" height="35.9"/>
          <rect class="cls-3" x="214.74" y="230.39" width="23.57" height="23.57"/>
        </g>
        <g>
          <rect class="cls-15" x="260.72" y="224.23" width="35.9" height="35.9"/>
          <rect class="cls-3" x="266.88" y="230.39" width="23.57" height="23.57"/>
        </g>
        <g>
          <rect class="cls-15" x="312.86" y="224.23" width="35.9" height="35.9"/>
          <rect class="cls-3" x="319.02" y="230.39" width="23.57" height="23.57"/>
        </g>
        <g>
          <rect class="cls-15" x="365" y="224.23" width="35.9" height="35.9"/>
          <rect class="cls-3" x="371.16" y="230.39" width="23.57" height="23.57"/>
        </g>
        <g>
          <rect class="cls-15" x="417.14" y="224.23" width="35.9" height="35.9"/>
          <rect class="cls-3" x="423.3" y="230.39" width="23.57" height="23.57"/>
        </g>
        <g>
          <rect class="cls-15" x="469.28" y="224.23" width="35.9" height="35.9"/>
          <rect class="cls-3" x="475.44" y="230.39" width="23.57" height="23.57"/>
        </g>
      </g>
      <g>
        <g>
          <rect class="cls-15" x="208.58" y="348.1" width="35.9" height="35.9"/>
          <rect class="cls-3" x="214.74" y="354.26" width="23.57" height="23.57"/>
        </g>
        <g>
          <rect class="cls-15" x="260.72" y="348.1" width="35.9" height="35.9"/>
          <rect class="cls-3" x="266.88" y="354.26" width="23.57" height="23.57"/>
        </g>
        <g>
          <rect class="cls-15" x="417.14" y="348.1" width="35.9" height="35.9"/>
          <rect class="cls-3" x="423.3" y="354.26" width="23.57" height="23.57"/>
        </g>
        <g>
          <rect class="cls-15" x="469.28" y="348.1" width="35.9" height="35.9"/>
          <rect class="cls-3" x="475.44" y="354.26" width="23.57" height="23.57"/>
        </g>
      </g>
      <polygon class="cls-15" points="517.92 274.36 195.84 274.36 164.29 322.64 549.47 322.64 517.92 274.36"/>
    </g>
    <path class="cls-10" d="M394.3,353.04v65.97h-77.13v-65.97c0-3.39,2.75-6.13,6.13-6.13h64.86c3.39,0,6.13,2.75,6.13,6.13Z"/>
    <path class="cls-13" d="M356.17,352.27v63.63c0,.54.84.65.84.11v-63.63c0-.54-.84-.65-.84-.11Z"/>
    <path class="cls-13" d="M347.03,384.92c-.2-.03-.47.13-.47.36v10.45c0,.23.12.44.36.47.2.03.47-.13.47-.36v-10.45c0-.23-.12-.44-.36-.47Z"/>
    <path class="cls-13" d="M364.59,384.92c-.2-.03-.47.13-.47.36v10.45c0,.23.12.44.36.47.2.03.47-.13.47-.36v-10.45c0-.23-.12-.44-.36-.47Z"/>
  </g>
  <g>
    <path class="cls-15" d="M129.39,282.27c3.42,0,6.93,3.66,6.24,14.2h-22.29s.86-14.2,16.05-14.2Z"/>
    <path class="cls-6" d="M200.96,418.97h-83.98c-5.1-2.85-11.67-4.22-16.83-7.09-8.38-4.65-10.24-19.32-12.57-31.19-2.33-11.87-23.28-14.43-30.03-17.22-6.75-2.79-7.91-8.38-7.91-13.04v-57.03c0-10.24,10.01-10.94,10.01-10.94l69.75-.18s-.02,0-.03,0c-.51.01-8.22.34-9.51,10.2-.15,1.17-.27,2.52-.36,4-.68,11.5.36,31.16.36,37.25,0,6.87,5.55,11.97,11.75,14.19,6.21,2.22,26.61,8.43,29.49,20.18s2.22,18.18,9.54,23.73c7.32,5.54,23.28,5.99,27.72,17.52,1.36,3.54,1.99,6.71,2.6,9.63Z"/>
    <g>
      <path class="cls-15" d="M113.21,314.48h-55.64c-1.18,0-1.05,1.83.12,1.83h55.65c1.18,0,1.05-1.83-.12-1.83Z"/>
      <path class="cls-15" d="M113.56,327.41h-55.65c-1.18,0-1.05,1.83.12,1.83h55.65c1.18,0,1.05-1.83-.12-1.83Z"/>
      <path class="cls-15" d="M112.13,341.41h-55.64c-1.18,0-1.05,1.83.12,1.83h55.65c1.18,0,1.05-1.83-.12-1.83Z"/>
      <path class="cls-15" d="M124.33,354.69h-55.65c-1.18,0-1.05,1.83.12,1.83h55.65c1.18,0,1.05-1.83-.12-1.83Z"/>
      <path class="cls-15" d="M148.39,365.82h-55.65c-1.18,0-1.05,1.82.12,1.82h55.65c1.18,0,1.05-1.82-.12-1.82Z"/>
    </g>
    <g>
      <path class="cls-15" d="M73.62,298.04c1.36-.68,2.06-1.83,2.06-3.2,0-2.25-1.91-3.88-6-3.88h-7.93v14.85h8.36c4.09,0,6.28-1.51,6.28-4.09,0-1.76-1.02-3.03-2.76-3.67ZM66.66,294.46h2.33c1.12,0,1.63.38,1.63,1.1s-.51,1.1-1.63,1.1h-2.33v-2.21ZM69.67,302.3h-3.01v-2.33h3.01c1.1,0,1.65.4,1.65,1.17s-.55,1.17-1.65,1.17Z"/>
      <rect class="cls-15" x="78.13" y="290.96" width="5.01" height="14.85"/>
      <polygon class="cls-15" points="90.56 290.96 85.56 290.96 85.56 305.8 97.26 305.8 97.26 301.92 90.56 301.92 90.56 290.96"/>
      <polygon class="cls-15" points="103.65 301.92 103.65 290.96 98.64 290.96 98.64 305.8 110.35 305.8 110.35 301.92 103.65 301.92"/>
    </g>
  </g>
  <g>
    <g>
      <g>
        <rect class="cls-8" x="221.73" y="20.69" width="81.07" height="40.65" transform="translate(16.5 141.33) rotate(-31.09)"/>
        <path class="cls-14" d="M226.53,42.87l54.05-32.6.15.25c1.3,2.16,4.12,2.85,6.27,1.55l.25-.15,12.39,20.55-.25.15c-2.16,1.3-2.86,4.12-1.55,6.27l.15.25-54.05,32.59-.15-.25c-1.3-2.16-4.12-2.86-6.27-1.55l-.25.15-12.39-20.55.25-.15c2.16-1.3,2.86-4.12,1.55-6.27l-.15-.25ZM280.39,11.08l-53.05,31.99c1.22,2.31.51,5.19-1.65,6.67l11.79,19.55c2.31-1.22,5.19-.51,6.67,1.65l53.05-31.99c-1.22-2.31-.51-5.19,1.65-6.67l-11.79-19.55c-2.31,1.22-5.19.51-6.67-1.65Z"/>
        <path class="cls-14" d="M259.05,44.34c.27-.02.59-.07.94-.14.24-.05.5-.11.78-.17.53-.13,1.12-.3,1.78-.51h.01c.44-.15.78-.25,1-.32.22-.07.5-.13.83-.21.34-.07.6-.11.78-.09.18.01.37.06.56.14.19.08.33.21.44.38.2.32.2.65,0,1.01-.19.35-.49.66-.91.92-.47.29-.92.42-1.37.37-.45-.04-.81-.28-1.08-.72l-4.28,2.69c.63,1,1.38,1.73,2.27,2.19h0c.25.13.51.24.78.32.06.02.13.04.19.06,1.18.32,2.47.22,3.86-.32l.96,1.54,3.45-2.16-.95-1.52c.29-.26.55-.53.78-.8.16-.18.3-.37.43-.56.47-.68.77-1.39.91-2.13.23-1.25-.04-2.5-.81-3.74-.02-.04-.05-.07-.07-.11-.14-.22-.29-.42-.44-.6-.09-.1-.18-.2-.27-.3-.28-.29-.55-.53-.82-.71-.27-.18-.57-.33-.91-.44-.34-.11-.64-.18-.91-.23-.27-.05-.59-.06-.97-.03-.38.03-.69.06-.94.09-.25.03-.57.1-.97.21-.4.1-.7.19-.91.25-.2.07-.5.16-.89.29-.38.12-.66.21-.83.27-.17.05-.41.12-.72.21-.31.08-.55.13-.71.13-.16,0-.35,0-.55-.02-.2-.01-.37-.07-.51-.16-.14-.09-.25-.22-.35-.38-.24-.38-.26-.79-.06-1.23.1-.22.24-.42.41-.61.16-.17.34-.32.56-.47.02-.01.04-.02.06-.04.51-.32,1.03-.45,1.55-.4.19.02.37.07.53.15.22.11.41.27.58.48.05.06.09.12.13.19l4.41-2.75c-.87-1.39-1.98-2.28-3.35-2.67-.09-.03-.19-.05-.28-.07-.32-.08-.65-.12-.99-.14-1-.06-2.05.13-3.16.57l-1.01-1.61-3.45,2.16,1.01,1.61c-.4.37-.75.75-1.05,1.14-.22.29-.41.59-.58.89-.28.53-.48,1.07-.6,1.64-.11.57-.13,1.14-.04,1.71.04.23.09.46.15.69.16.54.41,1.08.75,1.62l.1.16c1.11,1.67,2.67,2.42,4.71,2.26Z"/>
      </g>
      <g>
        <path class="cls-14" d="M277.72,31.69c-1.36-2.26-.64-5.19,1.62-6.55s5.19-.64,6.55,1.62c1.36,2.26.63,5.19-1.62,6.55-2.26,1.36-5.19.64-6.55-1.62Z"/>
        <path class="cls-14" d="M238.63,55.26c-1.36-2.26-.64-5.19,1.62-6.55,2.26-1.36,5.19-.64,6.55,1.62,1.36,2.26.64,5.19-1.62,6.55-2.26,1.36-5.19.64-6.55-1.62Z"/>
      </g>
    </g>
    <g>
      <path class="cls-4" d="M253.72,28.71c0,13.79-11.18,24.96-24.96,24.96s-24.96-11.17-24.96-24.96,11.17-24.96,24.96-24.96,24.96,11.17,24.96,24.96Z"/>
      <path class="cls-5" d="M228.76,7c-12,0-21.72,9.71-21.72,21.72s9.71,21.72,21.72,21.72,21.72-9.74,21.72-21.72-9.74-21.72-21.72-21.72ZM228.76,47.65c-10.48,0-18.96-8.48-18.96-18.93s8.48-18.96,18.96-18.96,18.93,8.48,18.93,18.96-8.48,18.93-18.93,18.93Z"/>
      <path class="cls-5" d="M239.05,33.25c0,2.09-.62,3.79-1.85,5.1-1.23,1.31-2.92,2.16-5.05,2.56v2.51h-5.36v-2.51c-2.22-.41-3.95-1.31-5.2-2.7-1.25-1.39-1.87-3.17-1.87-5.33h6.85c0,.77.27,1.37.81,1.8.54.43,1.21.64,2.01.64.75,0,1.39-.18,1.92-.53.53-.35.8-.82.8-1.42,0-.25-.04-.47-.13-.67-.09-.2-.24-.38-.46-.53s-.42-.29-.6-.4c-.19-.11-.48-.23-.88-.35-.4-.12-.72-.21-.95-.27-.23-.06-.6-.15-1.11-.28-.53-.13-.93-.23-1.2-.3-.27-.07-.67-.19-1.19-.35-.52-.16-.93-.31-1.23-.45-.3-.13-.67-.32-1.11-.55-.44-.23-.8-.47-1.06-.71-.26-.24-.55-.54-.85-.89-.3-.36-.54-.73-.71-1.12-.17-.39-.31-.85-.42-1.37-.11-.52-.17-1.08-.17-1.67,0-1.93.57-3.51,1.71-4.75,1.14-1.24,2.74-2.04,4.81-2.42v-2.37h5.36v2.4c2.04.4,3.62,1.24,4.72,2.54,1.1,1.3,1.66,2.94,1.66,4.94l-6.66.02c0-.68-.24-1.2-.71-1.56-.47-.36-1.07-.54-1.8-.54-.64,0-1.19.13-1.66.39-.46.26-.69.64-.69,1.13,0,.27.08.51.23.74.15.22.33.4.53.54.2.14.51.29.94.44.43.15.79.27,1.08.35.29.08.74.2,1.33.35h.02c2.04.53,3.54,1.03,4.49,1.52,2.38,1.24,3.61,3.18,3.68,5.82v.25Z"/>
    </g>
    <g>
      <g>
        <rect class="cls-8" x="229.61" y="50.39" width="81.07" height="40.65" transform="translate(-1.55 6.2) rotate(-1.31)"/>
        <path class="cls-14" d="M238.21,54.58l63.1-1.45v.3c.06,2.52,2.16,4.52,4.68,4.46h.3s.55,23.98.55,23.98h-.3c-2.52.06-4.52,2.16-4.46,4.68v.3s-63.1,1.45-63.1,1.45v-.3c-.06-2.52-2.16-4.52-4.68-4.46h-.3s-.55-23.98-.55-23.98h.3c2.52-.06,4.52-2.16,4.46-4.68v-.3ZM300.74,53.73l-61.94,1.42c-.09,2.61-2.14,4.76-4.75,4.97l.52,22.82c2.61.09,4.76,2.14,4.97,4.75l61.94-1.42c.09-2.61,2.14-4.76,4.75-4.97l-.52-22.82c-2.61-.09-4.76-2.14-4.97-4.74Z"/>
        <path class="cls-14" d="M265.7,72.01c.25.12.54.23.89.35.23.08.49.16.76.23.52.15,1.12.29,1.8.44h.01c.46.1.8.17,1.02.23.22.05.5.13.83.23.33.1.57.2.72.3.15.1.29.23.41.4.12.16.19.35.19.55.01.37-.15.66-.49.88-.34.21-.76.33-1.24.35-.55.02-1.01-.1-1.38-.36-.37-.26-.56-.65-.58-1.16l-5.05.21c.05,1.18.34,2.19.88,3.03h0c.15.24.32.46.52.67.05.05.09.1.14.15.86.87,2.03,1.41,3.51,1.64l.07,1.82,4.06-.16-.07-1.79c.38-.08.74-.19,1.07-.31.23-.08.45-.17.65-.27.74-.36,1.36-.82,1.85-1.39.83-.97,1.21-2.19,1.16-3.65,0-.04,0-.09,0-.13-.01-.26-.04-.5-.08-.74-.02-.13-.05-.26-.08-.39-.1-.39-.22-.73-.36-1.02-.14-.29-.33-.57-.57-.83-.24-.26-.46-.48-.67-.65-.21-.17-.48-.34-.82-.51-.34-.16-.63-.29-.86-.39-.23-.09-.54-.19-.94-.3-.4-.11-.7-.19-.91-.23-.21-.05-.52-.11-.92-.19-.39-.08-.68-.14-.85-.18-.17-.04-.42-.1-.73-.18-.31-.08-.54-.16-.68-.24-.14-.08-.3-.17-.47-.29-.17-.11-.29-.24-.36-.39-.07-.15-.11-.31-.12-.5-.02-.45.17-.82.56-1.1.2-.14.42-.25.66-.33.22-.07.46-.11.72-.13.02,0,.04,0,.07,0,.6-.02,1.12.12,1.54.43.16.11.29.25.39.4.14.2.22.44.26.71.01.07.02.15.02.23l5.19-.2c-.06-1.64-.59-2.97-1.58-3.98-.07-.07-.14-.14-.21-.2-.24-.23-.51-.43-.79-.62-.84-.55-1.85-.9-3.03-1.07l-.07-1.9-4.06.16.07,1.9c-.53.12-1.02.28-1.48.47-.34.14-.65.31-.95.49-.51.32-.95.69-1.33,1.13-.38.44-.68.93-.88,1.46-.08.22-.15.44-.21.68-.13.55-.18,1.14-.16,1.78v.19c.14,2,1.12,3.43,2.97,4.3Z"/>
      </g>
      <g>
        <path class="cls-14" d="M288.19,70.3c-.06-2.64,2.03-4.82,4.66-4.88s4.82,2.03,4.88,4.66c.06,2.64-2.03,4.82-4.66,4.88s-4.82-2.03-4.88-4.66Z"/>
        <path class="cls-14" d="M242.56,71.34c-.06-2.64,2.03-4.82,4.66-4.88,2.64-.06,4.82,2.03,4.88,4.66.06,2.64-2.03,4.82-4.66,4.88-2.64.06-4.82-2.03-4.88-4.66Z"/>
      </g>
    </g>
    <g>
      <circle class="cls-4" cx="231.62" cy="96.97" r="14.84" transform="translate(112.72 318.14) rotate(-84.45)"/>
      <path class="cls-5" d="M231.63,84.07c-7.14,0-12.91,5.77-12.91,12.91s5.77,12.91,12.91,12.91,12.91-5.79,12.91-12.91-5.79-12.91-12.91-12.91ZM231.63,108.23c-6.23,0-11.27-5.04-11.27-11.26s5.04-11.27,11.27-11.27,11.26,5.04,11.26,11.27-5.04,11.26-11.26,11.26Z"/>
      <path class="cls-5" d="M237.74,99.67c0,1.24-.37,2.25-1.1,3.03-.73.78-1.73,1.28-3,1.52v1.49h-3.19v-1.49c-1.32-.24-2.35-.78-3.09-1.6-.74-.83-1.11-1.88-1.11-3.17h4.07c0,.46.16.81.48,1.07.32.25.72.38,1.19.38.44,0,.82-.1,1.14-.31.32-.21.47-.49.47-.84,0-.15-.03-.28-.08-.4-.05-.12-.14-.22-.27-.32-.13-.09-.25-.17-.36-.24-.11-.07-.29-.14-.53-.21-.24-.07-.43-.13-.56-.16-.14-.03-.36-.09-.66-.17-.31-.08-.55-.14-.71-.18-.16-.04-.4-.11-.71-.21-.31-.1-.55-.19-.73-.27-.18-.08-.4-.19-.66-.33-.26-.14-.47-.28-.63-.42-.16-.14-.32-.32-.51-.53-.18-.21-.32-.43-.42-.67-.1-.23-.18-.5-.25-.81s-.1-.64-.1-.99c0-1.15.34-2.09,1.02-2.82.68-.74,1.63-1.22,2.86-1.44v-1.41h3.19v1.43c1.22.24,2.15.74,2.81,1.51.66.77.98,1.75.98,2.94h-3.96c0-.39-.14-.7-.42-.92-.28-.22-.64-.32-1.07-.32-.38,0-.71.08-.98.23-.27.16-.41.38-.41.67,0,.16.05.31.14.44.09.13.19.24.31.32.12.08.3.17.56.26.25.09.47.16.64.21.17.05.44.12.79.21h.01c1.22.31,2.1.61,2.67.91,1.42.74,2.15,1.89,2.19,3.46v.15Z"/>
    </g>
    <g>
      <circle class="cls-4" cx="286.08" cy="53.5" r="12.47" transform="translate(198.03 330.89) rotate(-82.98)"/>
      <path class="cls-5" d="M286.08,42.65c-6,0-10.85,4.85-10.85,10.85s4.85,10.85,10.85,10.85,10.85-4.86,10.85-10.85-4.86-10.85-10.85-10.85ZM286.08,62.96c-5.24,0-9.47-4.23-9.47-9.46s4.23-9.47,9.47-9.47,9.46,4.23,9.46,9.47-4.23,9.46-9.46,9.46Z"/>
      <path class="cls-5" d="M291.22,55.76c0,1.04-.31,1.89-.92,2.55-.62.65-1.46,1.08-2.52,1.28v1.25h-2.68v-1.25c-1.11-.2-1.98-.65-2.6-1.35-.62-.69-.94-1.58-.94-2.66h3.42c0,.38.14.68.41.9.27.21.61.32,1,.32.37,0,.69-.09.96-.26.27-.18.4-.41.4-.71,0-.12-.02-.23-.07-.33-.04-.1-.12-.19-.23-.27-.11-.08-.21-.15-.3-.2-.09-.06-.24-.11-.44-.17-.2-.06-.36-.11-.47-.14-.11-.03-.3-.08-.56-.14-.26-.06-.46-.11-.6-.15-.14-.03-.34-.09-.6-.17-.26-.08-.46-.16-.61-.22-.15-.07-.33-.16-.56-.28-.22-.12-.4-.23-.53-.35-.13-.12-.27-.27-.42-.45-.15-.18-.27-.36-.35-.56-.08-.2-.15-.42-.21-.68-.06-.26-.08-.54-.08-.84,0-.96.28-1.75.85-2.37.57-.62,1.37-1.02,2.4-1.21v-1.18h2.68v1.2c1.02.2,1.81.62,2.36,1.27.55.65.83,1.47.83,2.47h-3.33c0-.33-.12-.59-.35-.77-.24-.18-.54-.27-.9-.27-.32,0-.6.07-.83.2-.23.13-.35.32-.35.56,0,.13.04.26.11.37.08.11.16.2.26.27.1.07.26.14.47.22.21.08.39.13.54.18.15.04.37.1.67.18h0c1.02.26,1.77.52,2.24.76,1.19.62,1.8,1.59,1.84,2.91v.12Z"/>
    </g>
  </g>
  <g>
    <g>
      <path class="cls-11" d="M115.35,148.28c0-1.6,1.65-2.61,4.69-4,3.04-1.39,7.47-2.87,9.64-2.87s7.9,7.38,7.38,9.12c1.65,1.04,1.82,3.73-.52,4.69.87,1.74.33,4.13-1.13,4.52.09,2.17-1.49,3.72-3.73,4.86-2.24,1.14-7.99,2.34-11.72,1.91-3.73-.43-4.6-12.85-4.6-18.24Z"/>
      <path class="cls-15" d="M122.17,148.94s5.18-2.07,6.77-1.91c1.59.16,3.19,2.23,3.19,2.23,0,0-6.93-1.11-9.96-.32Z"/>
      <path class="cls-15" d="M136.71,155.16c-.03-.2-.2-.29-.39-.29-3.19.04-6.38.08-9.58.13-.91.01-1.82.02-2.74.04-.19,0-.31.22-.29.39.03.2.2.29.39.29,3.19-.04,6.38-.08,9.58-.13.91-.01,1.82-.02,2.74-.04.19,0,.31-.22.29-.39Z"/>
      <path class="cls-15" d="M126.92,155.33c-.11-.14-.34-.18-.48-.06-.32.27-.63.46-1.02.61-.21.08-.34.11-.55.15-.2.04-.41.06-.62.06-.19,0-.31.22-.29.39.03.2.2.3.39.29.91-.02,1.82-.37,2.51-.96.14-.12.17-.33.06-.48Z"/>
      <path class="cls-15" d="M135.68,159.4c-.08-.18-.27-.24-.45-.18-3.24,1.07-6.63,1.68-10.03,1.83-.44.02-.34.7.1.68,3.47-.15,6.91-.79,10.21-1.88.18-.06.25-.29.18-.45Z"/>
    </g>
    <path class="cls-15" d="M88.05,132.6s7.56-9.78,22.05-7.42c-3.66,10.18-22.05,7.42-22.05,7.42Z"/>
    <g>
      <path class="cls-9" d="M103.82,117.87s-3.33-6.54-6.88-10.21c-3.56-3.67-6.31-4.36-9.41-5.97-3.1-1.61-5.62-4.93-7-4.01s.8,5.62,2.29,6.88c1.49,1.26,5.62,3.33,6.77,4.93,1.15,1.61,1.84,6.77,4.36,8.14,2.52,1.38,9.86.23,9.86.23Z"/>
      <path class="cls-9" d="M62.54,103.89c.52-1.4,5.34,1.6,7.39,3.75,1.9,1.99,4.79,4.24,8.47,5.57,4.6,3.79,10.77,6.4,10.77,6.4,0,0-12.61-1.28-17.63-5.48-5.01-4.19-9.21-9.68-9-10.23Z"/>
      <path class="cls-11" d="M68.47,98.96c-.24-1.03,3.4-.89,5.3,3.07,1.52,3.18,4.63,8.54,7.42,9.82,2.79,1.28,15.02-1.55,18.8,1.12,3.96,2.79,12.55,19.47,12.55,19.47,0,0-4.24,4.69-14.34,5.47-3.12-10.04-7.53-17.41-9.04-18.3-6.02-1.17-10.71-2.29-12.94-4.69-2.23-2.4-7.48-14.73-7.75-15.95Z"/>
    </g>
    <g>
      <g>
        <path class="cls-11" d="M200.93,380.67s2.04,13.45,2.42,17.94c.37,4.48-.37,13.11-.37,13.11l40.67,2.74-3.16-8.21s-15.77-6.25-17.81-9.01c-2.04-2.76-1.67-20.53-1.67-20.53l-20.07,3.97Z"/>
        <path class="cls-15" d="M202.59,409.17c.09-.43,31.52,2.77,31.52,2.77l3.44-8.18s19.72,5.96,24.35,15.25h-59.45s-.9-4.85.15-9.84Z"/>
      </g>
      <g>
        <path class="cls-11" d="M173.39,380.67s-2.04,13.45-2.42,17.94c-.37,4.48.37,13.11.37,13.11l-40.67,2.74,3.16-8.21s15.77-6.25,17.81-9.01c2.04-2.76,1.67-20.53,1.67-20.53l20.07,3.97Z"/>
        <path class="cls-15" d="M171.73,409.17c-.09-.43-31.52,2.77-31.52,2.77l-3.44-8.18s-19.72,5.96-24.35,15.25h59.45s.9-4.85-.15-9.84Z"/>
      </g>
      <path class="cls-4" d="M233.03,382.55h-36.07l-5.79-145.84h-7.72l-3.15,144.48-33.12.2s-1.05-54.87-.36-69.44c1.68-35.22,1.49-69.88,2.39-86.99.26-5.02.62-8.53,1.14-10.1,51.57,0,74.99,3.7,74.99,3.7,0,0,.09,2.37.26,6.4.73,17.92,2.83,68.64,4.2,88.99,1.1,16.4,3.24,68.59,3.24,68.59Z"/>
      <path class="cls-5" d="M225.6,224.98h-76.39c.26-5.02.62-8.53,1.14-10.1,51.57,0,74.99,3.7,74.99,3.7,0,0,.09,2.37.26,6.4Z"/>
      <path class="cls-15" d="M207.48,99.17c-.21-.52-.41-1.03-.57-1.57-.94-3.07-.49-6.38,0-9.55.49-3.17,1-6.46.18-9.56-.66-2.51-2.33-4.66-4.7-5.74-.54-.25-5.55-2.39-5.62-1.97,0-.07,1.1-7.77-7.28-7.28-5.06,0-10.84,2.24-15.2,4.63-2.37,1.3-4.64,2.98-6.36,5.09-2.18,2.67-2.93,7.45-4.05,10.71-.88,2.53-1.83,5.19-3.84,6.96-1.97,1.73-4.64,2.35-7.16,3.08-2.51.74-5.16,1.78-6.58,3.98-1.21,1.87-1.31,4.23-1.22,6.45.09,2.22.33,4.51-.34,6.63-.74,2.39-2.35,3.03-4.27,4.25-1.6,1.02-3.17,2.46-4.37,3.92-2.64,3.22-3.9,7.44-3.15,11.56,1.05,5.75,8.76,11.5,12.42,12.16s40.92,6.14,51.11-3.66c10.2-9.8,6.27-21.57,7.06-25.62.87-4.49,6.19-6.85,4.78-12.1-.22-.82-.55-1.6-.86-2.38Z"/>
      <path class="cls-15" d="M268.47,148.52c-1.96-2.91-19.28-8.79-24.63-6.33-5.35,2.46,5.88,11.23,14.33,11.23s10.3-4.9,10.3-4.9Z"/>
      <path class="cls-2" d="M268.47,148.52s-9.28,40.16-24.81,39.97c-8.33-.1-16.55-9.08-22.5-17.42-5.14-7.21-8.59-13.94-8.94-14.02,0,0-3.74-13.94-4.95-25.82-.6-5.85-.59-11.21.79-14.15,2.62.05,8.9,3.79,10.99,6.44,2.08,2.65,21.02,33.53,21.02,33.53,0,0,1.92-5.41,4-12.61,12.72,10.16,24.41,4.08,24.41,4.08Z"/>
      <path class="cls-15" d="M221.16,171.06c-5.14-7.21-8.59-13.94-8.94-14.02,0,0-3.74-13.94-4.95-25.82,3.45,2.8,13.2,11.78,17.75,21.99.66,1.48.97,3.1.9,4.72-.23,5.33-2.56,9.99-4.76,13.13Z"/>
      <path class="cls-9" d="M200.18,116.19c-7.28,9.59-11.13,12.16-12.85,12.76-1.71.6-13.96-6.42-18.42-13.45,4.28-1.28,6.22-2.57,7.54-4.88,1.37-2.23.51-15.59.51-15.59l3.17,1.82,14.39,8.28v5.65c0,2.74,3,4.8,5.65,5.4Z"/>
      <path class="cls-15" d="M194.53,105.14v4.49c-11.46,1.05-13.93-7.98-14.39-12.77l14.39,8.28Z"/>
      <path class="cls-9" d="M199.48,90.46s.59-4.14,3.3-3.78c3.64.34,2.36,7.76-3.17,10.05-.61-4.59-.13-6.27-.13-6.27Z"/>
      <path class="cls-11" d="M198.83,80.32c1.19,1.55,1.85,3.44,1.89,5.39.07,3.45.14,10.24-.25,13.33-.54,4.25-3.1,7.08-9.58,7.69-6.47.61-12.24-5.96-13.35-9.71-1.08-3.64-.67-6.54-.67-6.54,0,0,4.99-1.75,8.77-3.78,3.78-2.02,8.29-6.07,9.78-9.91,1.54,1.31,2.64,2.51,3.42,3.53Z"/>
      <path class="cls-11" d="M177.34,92.1c-.02-.32-2.09-7.49-5.13-5.19-2.28,1.73-.09,6.18,1.21,7.69,1.75,2.02,3.98,2.23,3.98,2.23l-.07-4.72Z"/>
      <path class="cls-15" d="M194.22,106.6c-.02-.17-.21-.34-.39-.29-2.52.61-5.21.45-7.64-.48-2.23-.85-4.17-2.35-5.61-4.25-.79-1.05-1.41-2.22-1.85-3.46-.15-.42-.77-.14-.63.27.81,2.3,2.26,4.36,4.13,5.92,2.02,1.67,4.52,2.71,7.13,2.98,1.52.16,3.07.06,4.55-.3.18-.04.32-.19.29-.39Z"/>
      <path class="cls-10" d="M169.14,113.74s-.05,0-.13.03c-1.62.34-16.08,2.29-19.36,5.88-3.45,3.78,2.07,34.85,3.06,39.45.09.42.2.91.32,1.46,2.45,11.13,2.44,22.66-.02,33.79-2.34,10.64-4.9,22.63-4.9,24.23h79.85c-.9-9.8-4.7-20.75-6.57-26.15-1.31-3.79-2.25-7.7-2.72-11.68-.92-7.78-.1-14.05,2.64-23.12.38-1.27.52-2.51.26-3.62-1.31-5.59-8.71-17.09-8.71-17.09,0,0-.49-16.6-1.48-18.4-.99-1.81-11.67-3.94-11.67-3.94,0,0-8.71,11.17-11.5,12.82-6.88-.58-19.06-13.64-19.06-13.64Z"/>
      <path class="cls-15" d="M159.19,152.28c-.6-2.01-1.2-4.02-1.8-6.04-.13-.42-.79-.28-.67.15.6,2.01,1.2,4.02,1.8,6.04.13.42.8.28.67-.15Z"/>
      <path class="cls-15" d="M196.92,167.52h-28.09c-1.36,0-2.66-.37-3.82-1.08-1.69-1.05-2.93-2.75-3.36-4.69-.2-.89-.23-1.8-.11-2.7.06-.44-.62-.52-.68-.09-.24,1.72.08,3.51.9,5.03.8,1.48,2.05,2.67,3.56,3.41.47.23.95.42,1.46.55.25.07.51.12.76.17.69.12,1.41.07,2.1.07h27.18c.18,0,.36-.1.38-.3.02-.16-.11-.38-.3-.38Z"/>
      <path class="cls-12" d="M238.02,111.72s-12.7,2.33-12.7,12.45v277.44c0,5.81-7.02,17.43-17.56,17.43h24.79s13.43-1.5,13.43-16.68V112.93l-7.96-1.2Z"/>
      <path class="cls-3" d="M245.53,159.22v245.31c0,.96,1.5,1.16,1.5.19v-245.31c0-.96-1.5-1.16-1.5-.19Z"/>
      <path class="cls-11" d="M246.17,113.61c-.66,0-5.32-.01-8.68,1.22-3.36,1.23-4.97,2.39-4.64,2.96.33.57,1.39,1.06,1.39,1.06,0,0-1.8,1.15-1.47,2.05.33.9,2.46,1.15,4.01.98-2.78,1.88-3.36,3.28-2.7,3.93.66.65,4.01-.9,4.91-1.06,2.29.08,4.26,0,4.26,0,0,0,.08,6.88,2.95,9.17v12.2s5.73,3.93,12.04,4.09v-28.58c0-2.37-4.36-7.95-12.06-8.03Z"/>
      <path class="cls-6" d="M266.76,133.72h-17.66s0-10.33-2.83-16.66c-1.81-4.05-5.26-5.1-7.51-5.33h15.51s7.61-.16,9.66,5.33c2.43,6.5,2.83,16.66,2.83,16.66Z"/>
      <path class="cls-15" d="M245.84,121.19c-2.97-.45-6.03-.26-8.92.54-.18.05-.32.19-.29.39.02.16.21.34.39.29,2.84-.79,5.82-.98,8.74-.54.44.07.52-.61.09-.68Z"/>
      <path class="cls-15" d="M245.77,117.19c-2.93-.31-5.9-.1-8.75.64-.81.21-1.6.46-2.39.75-.41.15-.14.78.27.63,2.66-.98,5.5-1.49,8.33-1.47.82,0,1.63.05,2.44.14.44.05.53-.63.09-.68Z"/>
      <path class="cls-5" d="M210.1,236.63h-38.79c-.18,0-.36.1-.38.3-.02.16.11.38.3.38h38.79c.18,0,.36-.1.38-.3.02-.16-.11-.38-.3-.38Z"/>
      <path class="cls-6" d="M153.57,419.05c2.59,0,8.87-1.91,9.43-11.71.56-9.8,0-17.19,0-20.52s2.22-11.65,8.69-11.65h18.12c-6.47,0-8.69,8.32-8.69,11.65s.55,10.72,0,20.52c-.55,9.8-6.84,11.71-9.43,11.71h-18.12Z"/>
      <path class="cls-15" d="M189.33,419.05c-2.59,0-8.88-1.91-9.43-11.71-.55-9.8,0-17.19,0-20.52s-2.22-11.65-8.69-11.65h18.12c6.47,0,8.69,8.32,8.69,11.65s-.56,10.72,0,20.52c.55,9.8,6.84,11.71,9.43,11.71h-18.12Z"/>
    </g>
    <path class="cls-2" d="M110.1,125.18s-7.08,6.35-22.05,7.42c10.51,26.8,20.57,54.07,29.84,56.13,9.28,2.06,14.02-3.92,17.73-6.18,3.71-2.27,23.7-29.27,27.21-36.28,3-6,2.33-23.66-7.12-26.79-2.75-.91-5.78.08-7.61,2.32-9.08,11.13-23.55,30.15-23.55,30.15l-14.45-26.78Z"/>
  </g>
  <path class="cls-15" d="M184.35,47.1v-.75c.02-.86.11-1.65.3-2.37.19-.72.39-1.31.62-1.76.23-.45.56-.91,1-1.37.43-.46.79-.79,1.06-1.01.27-.22.66-.5,1.16-.85.43-.3.75-.54.97-.71.22-.17.47-.4.74-.68.27-.28.46-.57.58-.88.11-.31.17-.65.17-1.04,0-.82-.25-1.48-.78-1.99-.53-.51-1.17-.76-1.94-.77-.79,0-1.48.24-2.07.75-.58.51-.88,1.2-.89,2.09l-6.89-.07c.02-1.9.49-3.53,1.4-4.91.91-1.38,2.1-2.39,3.57-3.05,1.47-.66,3.12-.98,4.95-.96,2.85.03,5.19.86,7.02,2.5,1.84,1.63,2.74,3.77,2.71,6.41,0,.72-.1,1.39-.27,2.02-.17.63-.37,1.15-.59,1.56-.22.41-.54.84-.96,1.28-.41.44-.76.77-1.03,1-.27.23-.66.53-1.16.91-.49.37-.86.65-1.1.85-.24.2-.52.48-.84.82-.32.34-.55.7-.68,1.07-.14.37-.21.78-.21,1.23v.75s-6.85-.07-6.85-.07ZM184.11,55.89l.07-6.81,7.12.07-.07,6.81-7.12-.07Z"/>
  <g>
    <path class="cls-8" d="M262.49,419.01h-97.96l13.72-5.67s-11.98-10.24-6.32-12.2c5.66-1.96,13.51,3.7,13.51,3.7,0,0-12.42-18.08-4.57-17.87,7.84.22,9.8,6.1,9.8,6.1,0,0-4.14-24.4,3.92-18.08.43.34.85.69,1.24,1.06,6.91,6.36,7.69,15.72,7.69,15.72,0,0,4.36-15.03,10.02-11.11,5.59,3.87,3.75,16.87,3.71,17.2.14-.28,5.27-10.42,8.71-7.84,3.41,2.55-.68,11.15-.86,11.53.34-.52,11.79-17.78,13.72-13.28,1.96,4.58-3.92,14.6-3.92,14.6,0,0,12.42-13.94,16.99-10.89,4.58,3.05-5.88,14.38-5.23,14.16.65-.22,19.39-11.11,18.3-4.58-1.02,6.13-8.17,9.77-9.06,10.2.92-.41,8.68-3.7,12.98-.83,2.46,1.64-1.86,5.16-6.4,8.07Z"/>
    <path class="cls-8" d="M449.35,419.01h97.96l-13.72-5.67s11.98-10.24,6.32-12.2c-5.66-1.96-13.51,3.7-13.51,3.7,0,0,12.42-18.08,4.57-17.87-7.84.22-9.8,6.1-9.8,6.1,0,0,4.14-24.4-3.92-18.08-.43.34-.85.69-1.24,1.06-6.91,6.36-7.69,15.72-7.69,15.72,0,0-4.36-15.03-10.02-11.11-5.59,3.87-3.75,16.87-3.71,17.2-.14-.28-5.27-10.42-8.71-7.84-3.41,2.55.68,11.15.86,11.53-.34-.52-11.79-17.78-13.72-13.28-1.96,4.58,3.92,14.6,3.92,14.6,0,0-12.42-13.94-16.99-10.89-4.58,3.05,5.88,14.38,5.23,14.16-.65-.22-19.39-11.11-18.3-4.58,1.02,6.13,8.17,9.77,9.06,10.2-.92-.41-8.68-3.7-12.98-.83-2.46,1.64,1.87,5.16,6.4,8.07Z"/>
    <path class="cls-1" d="M580.36,387.66c-.68-.25-1.38-.42-2.07-.54.46-1.12.87-2.27,1.2-3.45,1.51-5.3,1.68-11.25-.92-16.25-2.2-4.23-6.2-7.69-11.02-8.39-5.09-.74-9.96,1.73-13.64,5.06-3.16,2.86-5.71,6.4-7.76,10.17-1.3-2.14-3.06-3.93-5.5-4.7-5.26-1.65-10.07,2.25-12.22,6.77-2.17,4.58-2.75,10.04-2.63,15.05.23,9.94,3.99,19.82,10.45,27.38,0,0,0,0,.01.01.44.52.9,1.02,1.37,1.51h2.16c-.5-.5-.99-1-1.47-1.53-4.77-5.23-8.16-11.7-9.81-18.58-1.04-4.34-1.42-8.83-1.04-13.27.4-4.56,1.35-9.83,4.59-13.3,1.6-1.71,3.94-2.96,6.33-2.89,2.16.06,4.03,1.24,5.38,2.87.59.71,1.1,1.49,1.53,2.3-.28.56-.55,1.12-.81,1.68-2.35,5.11-3.87,10.62-4.44,16.22-.28,2.72-.43,5.55-.15,8.27.2,1.98.83,4.32,2.52,5.56,1.92,1.4,4.39.69,5.88-.98,1.84-2.08,2.01-5.33,2.23-7.96.5-6.11-.11-12.28-1.8-18.17-.43-1.49-.97-3.1-1.7-4.61.67-1.27,1.4-2.52,2.17-3.72,2.57-3.98,5.82-7.78,10.07-10.02,4-2.1,8.7-2.37,12.61.1,3.88,2.44,6.32,6.63,6.97,11.12.67,4.64-.35,9.32-2.17,13.59-3.61-.09-7.17,1.43-10,3.76-2.07,1.71-3.83,3.79-5.39,5.98-1.42,1.99-2.69,4.42-1.72,6.89.94,2.39,3.72,2.97,5.9,1.93,2.47-1.17,3.99-3.92,5.52-6.06,2.45-3.44,4.86-7.01,6.64-10.86,3.22.43,6.03,2.34,7.17,5.69,1.49,4.38.27,9.54-1.1,13.8-1.22,3.78-2.95,7.38-5.15,10.68-.34.52-.7,1.03-1.06,1.53h1.88c.35-.5.68-1.01,1.01-1.53.86-1.35,1.64-2.75,2.35-4.19,2.3-4.66,4.06-10.01,4.22-15.25.15-4.89-1.66-9.89-6.6-11.67ZM548.61,387.13c.42,2.76.61,5.55.55,8.34-.05,2.62-.13,5.5-.91,8.02-.6,1.93-2.7,4.49-4.9,2.91-1.5-1.08-1.86-3.38-1.97-5.09-.5-8.04,1.27-16.32,4.76-23.64.21.51.41,1.03.58,1.55.88,2.56,1.48,5.23,1.88,7.91ZM575.85,388.79c-1.21,2.46-2.66,4.79-4.2,7.06-1.48,2.18-2.97,4.43-4.65,6.46-.8.96-1.78,1.85-3.03,2.12-1.16.24-2.34-.11-2.88-1.22-1.11-2.29.79-4.72,2.09-6.46,2.78-3.69,6.46-7.32,11.22-8.08.53-.09,1.06-.13,1.58-.14-.04.09-.09.18-.13.27Z"/>
    <path class="cls-7" d="M302.09,418.78c-2.11-8.77-5.82-17.21-11.03-24.57-2.5-3.52-6.63-7.12-11.25-5.16-2.89,1.23-3.51,3.8-3.21,6.5-3.81-.9-9.44-.89-11.23,3.4-1.93,4.63,2.46,9.44,5.5,12.4,3.15,3.07,6.84,5.59,10.85,7.43.58.27,1.17.52,1.76.75.71.28,1.43.54,2.16.78h2.34c.2-.37.14-.85-.38-1-.57-.16-1.13-.34-1.69-.53-3.58-1.21-6.97-2.96-10.03-5.19-1.81-1.32-3.51-2.81-5.05-4.44-1.46-1.55-2.87-3.21-3.72-5.18-.83-1.92-1.02-4.24.63-5.8,1.3-1.22,3.23-1.58,4.95-1.58,1.39,0,2.79.2,4.16.57.34,1.55.88,3.06,1.38,4.3,1.01,2.55,2.26,5.03,3.74,7.34,1.24,1.92,3.03,3.7,5.48,3.64,2.12-.06,3.62-1.74,3.66-3.81.03-2.11-1.04-4.08-2.36-5.65-2.79-3.31-6.54-5.74-10.68-7.01-.34-2.18-.02-4.23,1.95-5.31,3.95-2.17,7.73,1.56,9.82,4.52,5.01,7.07,8.59,15.18,10.65,23.61.12.51.24,1.02.36,1.53h1.57c-.11-.51-.23-1.02-.35-1.53ZM284.28,400.83c1.58,1.2,3.15,2.65,4.21,4.35.81,1.29,1.73,3.56.6,4.94-1.53,1.88-4.1.15-5.2-1.27-1.46-1.88-2.55-4.14-3.52-6.3-.55-1.23-1.38-3.03-1.92-4.89,2.11.76,4.1,1.87,5.82,3.18Z"/>
  </g>
  <path class="cls-15" d="M634.66,420.31H19.6c-.99,0-.78-1.53.2-1.53h615.07c.99,0,.78,1.53-.2,1.53Z"/>
</svg>