<?xml version="1.0" encoding="UTF-8"?>
<svg id="LOGO" xmlns="http://www.w3.org/2000/svg" viewBox="0 0 484.26 462.92">
  <defs>
    <style>
      .cls-1 {
        fill: #fff;
        stroke: #fff;
        stroke-miterlimit: 10;
        stroke-width: 17px;
      }
    </style>
  </defs>
  <path id="CUSTOM-Form1" class="cls-1" d="M204.57,290.15l23.57-17.2v181.47h-23.57v-164.27h0ZM362.05,222.56v-91.91L204.57,16.65v203.14l-40.97,32.82v-108.2L8.5,257.59v196.83h23.57v-184.85l107.96-78.78v79.02l-56.37,41.14v143.47h82.73v-132.41l-23.57,17.2v91.64h-35.58v-107.92l120.92-91.16V63.03l110.33,79.59v62.73l-73.05-53.31v302.37h23.57v-255.99l163.17,119.07v113.35h-90.11l1.82-136.11-23.57-17.2-1.82,176.89h137.26v-148.9l-113.69-82.96h-.02Z"/>
</svg>