<?xml version="1.0" encoding="UTF-8"?>
<svg id="Layer_4" data-name="Layer 4" xmlns="http://www.w3.org/2000/svg" viewBox="0 0 697.81 417.5">
  <defs>
    <style>
      .cls-1 {
        fill: #8fbee0;
      }

      .cls-1, .cls-2, .cls-3, .cls-4, .cls-5, .cls-6, .cls-7, .cls-8 {
        stroke: #00186e;
        stroke-linecap: round;
        stroke-linejoin: round;
      }

      .cls-2 {
        fill: #fff;
      }

      .cls-3 {
        fill: #ffab42;
      }

      .cls-9 {
        fill: #0d263b;
      }

      .cls-9, .cls-10 {
        stroke-width: 0px;
      }

      .cls-10 {
        fill: #dcedfa;
      }

      .cls-4, .cls-7 {
        fill: none;
      }

      .cls-5 {
        fill: #076ddd;
      }

      .cls-6 {
        fill: #71bcff;
      }

      .cls-7 {
        stroke-width: 2px;
      }

      .cls-8 {
        fill: #1589c8;
      }
    </style>
  </defs>
  <path class="cls-10" d="M68.83,146.53c18.92-10.62,39.53-19.03,58.13-28.81C201.87,81.44,265.72,22.28,350.11,8.84c169.4-31.35,338.49,81.64,305.73,266.28-64.49,240.17-380.22,105.6-516.78,97.86C-2.49,391.72-53.24,211.65,68.83,146.53Z"/>
  <g>
    <rect class="cls-4" x="498.14" y="22.6" width="108.75" height="132.62"/>
    <rect class="cls-4" x="505.24" y="31.27" width="94.54" height="115.29"/>
    <rect class="cls-4" x="535.75" y="68.47" width="33.52" height="40.88"/>
  </g>
  <g>
    <line class="cls-4" x1="241.56" y1="176.09" x2="241.56" y2="6.86"/>
    <polyline class="cls-4" points="19.4 269.48 241.56 269.48 241.56 183.67"/>
    <line class="cls-4" x1="473.13" y1="131.06" x2="473.13" y2="7.67"/>
    <polyline class="cls-4" points="250.96 14.24 250.96 269.48 473.13 269.48 473.13 136.86"/>
    <line class="cls-4" x1="250.96" y1="6.86" x2="250.96" y2="9.78"/>
  </g>
  <g>
    <rect class="cls-2" x="97.68" y="376.87" width="16.2" height="18.29"/>
    <rect class="cls-2" x="46.01" y="298.1" width="119.55" height="80.63"/>
    <rect class="cls-1" x="49.63" y="301.58" width="112.3" height="73.67"/>
  </g>
  <path class="cls-9" d="M329.51,291.49c-110.47.79-71.18-16.45-102.16,103.53h97.44l18.21-86.92c1.79-8.56-4.74-16.61-13.49-16.61Z"/>
  <g>
    <path class="cls-1" d="M540.85,196.44c-11.16,30.71-42.79,1.84-29.55-12.27,10.6-9.48,25.09,5.58,29.55,12.27Z"/>
    <path class="cls-1" d="M555.35,136.21s-13.94,34.01-8.36,50.74c5.58,16.73,40.15,29,50.19,7.25,11.7-25-23.28-80.49-41.82-57.99Z"/>
    <path class="cls-1" d="M636.76,150.71s-23.98,21.75-26.77,43.49c-2.79,21.75,13.38,29.55,30.11,26.77,22.06-.79,36.29-96.76-3.35-70.26Z"/>
    <g>
      <path class="cls-1" d="M641.22,271.16s-26.77,1.12-27.88,13.94c-1.32,31.79,54.42-12.85,27.88-13.94Z"/>
      <path class="cls-4" d="M613.78,288.16s21.09-9.65,30.59-11.33"/>
    </g>
    <g>
      <path class="cls-1" d="M647.19,355.08s-19.66-18.2-29.54-9.95c-23.48,21.47,47.48,29.53,29.54,9.95Z"/>
      <path class="cls-4" d="M615.79,347.6s21.72,8.16,29.6,13.71"/>
    </g>
    <g>
      <path class="cls-1" d="M543.48,349.72s27.1-25.08,40.72-13.71c32.36,29.6-65.45,40.71-40.72,13.71Z"/>
      <path class="cls-4" d="M586.76,339.41s-29.93,11.24-40.81,18.9"/>
    </g>
    <path class="cls-1" d="M574.86,297.92c-5.94,30.61-43.4,21.54-31.23-3.35,9.48-16.17,26.21-3.35,31.23,3.35Z"/>
    <path class="cls-1" d="M551.44,256.1s-5.02-11.15-24.54-3.9c-43.46,18.06-12.12,37.15,24.54,3.9Z"/>
    <path class="cls-4" d="M547.71,255.59s-20.67,2.24-31.85,11.73"/>
    <path class="cls-1" d="M607.21,122.27s3.35,7.81,10.04,6.13c6.69-1.67,8.36-11.71,18.96-8.92,10.59,2.79,19.52,15.06,19.52,9.48-1.75-16.61-44.78-32.23-48.51-6.69Z"/>
    <path class="cls-4" d="M551.44,256.1c4.65-2.37,31.92,1.72,36.52,30.21"/>
    <path class="cls-1" d="M651.65,230.27s5.02-11.15,24.54-3.9c43.46,18.06,12.12,37.15-24.54,3.9Z"/>
    <path class="cls-4" d="M656.11,231.01s20.12-1.12,29.62,10.62"/>
    <path class="cls-4" d="M651.65,230.27s-7.96-1.53-16.62,2.26"/>
    <path class="cls-4" d="M564.24,210.27c-13.84-13.93-34.55-19.92-47.27-12.23"/>
    <g>
      <line class="cls-4" x1="566.63" y1="148.5" x2="565.59" y2="143.84"/>
      <path class="cls-4" d="M593.78,395.02s2.5-96.03,0-125.19c-9.01-59.79-18.11-71.58-26.05-116.39"/>
      <line class="cls-4" x1="643.34" y1="169.12" x2="645.49" y2="164.51"/>
      <path class="cls-4" d="M599.62,394.91c-.72-70.2.83-151.54,41.29-220.57"/>
      <path class="cls-4" d="M613.78,288.16s-5.83,50.22-9.17,106.88"/>
      <path class="cls-4" d="M585.45,394.91c-2.25,1.17,8.33-108.4-10.59-96.99,0,0-15.42,1.81-21.01,10.75"/>
      <path class="cls-4" d="M589.28,292.56c4.36,24.43.34,102.44.34,102.44"/>
      <path class="cls-4" d="M630.31,235.16c-30.86,20.31-18.45,153.99-21.52,159.87"/>
      <path class="cls-4" d="M567.14,213.45c31.26,36.69,30.76,154.6,29.97,181.46"/>
      <path class="cls-4" d="M601,249.32c-.81,48.37-1.39,145.59-1.39,145.59"/>
    </g>
    <path class="cls-4" d="M601.11,243.3c1.02-34.64.8-112.71,6.1-121.02,0,0,3.08-9.73,20.41-8.61"/>
    <g>
      <path class="cls-1" d="M579.77,279.83s-13.94-12.43-8.36-18.55c5.58-6.11,40.15-10.6,50.19-2.65,10.04,7.95-12.27,19.16-20.63,21.6-8.36,2.45-18.4,1.63-21.19-.41Z"/>
      <path class="cls-4" d="M592.64,269.65c-.19,1.26-.31,2.51-.31,3.71"/>
      <path class="cls-4" d="M597.43,255.13s-2.07,4.15-3.58,9.23"/>
    </g>
    <g>
      <path class="cls-1" d="M579.77,361.11s-13.94-12.43-8.36-18.55c5.58-6.11,40.15-10.6,50.19-2.65,10.04,7.95-12.27,19.16-20.63,21.6-8.36,2.45-18.4,1.63-21.19-.41Z"/>
      <path class="cls-4" d="M597.43,336.42s-5.1,10.21-5.1,18.22"/>
    </g>
    <g>
      <path class="cls-1" d="M590.15,326.73s-9.46-8.44-5.68-12.59,27.26-7.2,34.07-1.8c8.95,8.91-22.97,19.68-28.39,14.39Z"/>
      <path class="cls-4" d="M602.14,309.97s-3.46,6.93-3.46,12.37"/>
    </g>
  </g>
  <g>
    <g>
      <path class="cls-2" d="M196.02,326.14s-11.66,18.24-11.26,19.04c.4.79,7.93,9.72,8.53,10.11.59.4,4.16.2,4.16.2l5.95-4.96c.2-1.59-1.37-3.45-2.97-3.37,3.06-6.5,3.24-10.69,2.4-17.67l-6.8-3.35Z"/>
      <line class="cls-4" x1="200.42" y1="347.16" x2="196.46" y2="351.32"/>
    </g>
    <g>
      <path class="cls-2" d="M198.16,221.96s38.38,65.76,38.38,66.66-33.72,40.88-33.72,40.88l-6.8-3.35,14.86-40.21-19.39-13.43,6.68-50.54Z"/>
      <polygon class="cls-9" points="196.44 253.2 205.39 282.03 194.76 275.03 196.44 253.2"/>
      <polyline class="cls-4" points="227.49 282.76 210.88 285.93 219.84 280"/>
      <line class="cls-4" x1="197.72" y1="321.46" x2="206.66" y2="324.65"/>
    </g>
    <path class="cls-2" d="M197.22,246.61l-4.69,42.72.94,51.17h-81.14l-1.41-23.47s-26.29-80.98-26.06-83.8c.23-2.82,43.82-24.18,43.82-24.18l36.85-1.17,32.63,14.08.23,11.5"/>
    <polygon class="cls-5" points="147.57 222.27 155.15 231.45 149.96 331.96 159.53 343.13 171.5 330.76 159.93 231.84 162.72 218.28 158.34 207.11 138.79 208.71 147.57 222.27"/>
    <polygon class="cls-2" points="126.8 175.25 131.73 199.43 150.51 215.39 162.95 205.06 162.48 192.85 157.08 192.85 133.61 181.12 126.8 175.25"/>
    <polygon class="cls-2" points="154.74 211.4 158.73 229.24 169.76 211.63 162.72 200.13 162.95 205.06 154.74 211.4"/>
    <polygon class="cls-2" points="131.73 199.43 125.63 210.22 149.1 230.41 151.22 213.28 131.73 199.43"/>
    <g>
      <path class="cls-2" d="M124.36,168.54s-2.53-5.65-5.06-2.92c-3.84,4.8,3.99,15.57,9.15,13.05,0,0,5.65,9.35,6.82,10.13,1.17.78,18.7,8.76,21.03,9.54s10.13-1.95,11.68-4.09c1.56-2.14.39-23.37,0-29.6-.39-6.23-4.67-30.77-5.45-32.13-1.32-7.14,2.82-20.96-10.13-13.83,0,0,2.34-4.28-.39-2.92-39,20.64-36.89,5.25-27.65,52.78Z"/>
      <g>
        <path class="cls-4" d="M124.36,168.54s-.14-.3-.38-.73l.38.73Z"/>
        <path class="cls-9" d="M162.4,132.06c-.72-9.06,2-19.85-10-13.37,0,0,2.34-4.28-.39-2.92-39,20.64-36.89,5.25-27.65,52.78l3.51-1.17s-2.73-8.18-1.36-9.54c1.36-1.36,3.9-2.92,3.9-3.7s-3.31-8.18-1.36-10.32c1.68-1.85,26.62-9.66,33.37-11.75Z"/>
      </g>
      <polyline class="cls-4" points="157.47 153.54 160.78 175.74 155.52 174.38"/>
      <path class="cls-7" d="M150.07,155.1s-7.01-.97-10.91,1.36"/>
      <path class="cls-7" d="M158.83,148.67s.78-6.43,5.65-4.28"/>
      <path class="cls-4" d="M145.01,179.25s5.26,2.14,9.15,2.34"/>
      <path class="cls-9" d="M148.51,161.33c.03,3.03-2.75,3.03-2.73,0-.03-3.03,2.75-3.03,2.73,0Z"/>
      <path class="cls-9" d="M165.26,156.46c.03,3.03-2.75,3.03-2.73,0-.03-3.03,2.75-3.03,2.73,0Z"/>
    </g>
    <g>
      <g>
        <path class="cls-2" d="M149.74,200.67s-2.73-4.67-1.95-4.87c.78-.19,10.52-3.12,10.32-4.67-.19-1.56-3.12-2.92-5.45-2.34-2.34.58-14.22,2.92-13.83,4.67.39,1.75,4.09,12.27,5.45,14.8,1.36,2.53,2.92,23.95,2.92,23.95h9.93l.39-6.23c5.58-1,6.56-2.15,5.84-7.79,0,0,4.48-.78,4.48-1.75s1.36-9.74,0-10.91c-1.36-1.17-10.91-7.21-12.66-7.21s-5.45,2.34-5.45,2.34Z"/>
        <polyline class="cls-4" points="163.37 218.2 163.57 214.31 165.32 213.33"/>
        <line class="cls-4" x1="149.74" y1="200.67" x2="145.65" y2="203.4"/>
      </g>
      <g>
        <path class="cls-2" d="M123.97,234.87l21.36,36.15,1.88-38.8h9.93c.11,6.65,12.18,60.88,7.44,71.9-1.41,2.11-7.67,9.1-10.01,9.1s-9.47-3.94-10.64-5.82c-.6-.96-15.23-9.05-27.69-21.95-11.82-12.23-24.03-29.96-24.03-29.96"/>
        <line class="cls-4" x1="145.33" y1="271.02" x2="142.74" y2="294.03"/>
        <line class="cls-4" x1="146.74" y1="237.92" x2="157.3" y2="237.92"/>
      </g>
    </g>
    <polygon class="cls-9" points="112.33 340.5 112.33 395.02 194.94 395.02 193.47 340.5 112.33 340.5"/>
  </g>
  <path class="cls-9" d="M354.82,136.21c-20.93,4.68-19.2,28.99-13.39,17.38-4.03,9.88,4.49,13.22,9.39,17.61,0,0-.7,9.39-3.52,15.27-2.82,5.87-6.81,12.45-4.7,15.03,2.11,2.58,4.7-1.17,4.7-1.17,0,0,2.35,5.87,10.57,7.98,11.78,3.17,36.77,7.65,44.15-.94,0,0-2.11,3.99,1.64,1.64,3.76-2.35,6.11-5.4,9.86-13.86,3.76-8.45,6.11-21.84,4.23-32.17-5.51-25.74-43.2-41.9-62.94-26.77Z"/>
  <polygon class="cls-3" points="413.88 228.87 416.96 267.61 400.68 297.75 393.87 283.9 413.88 228.87"/>
  <polygon class="cls-9" points="402.51 261.36 397.79 291.61 393.72 284.94 402.51 261.36"/>
  <polygon class="cls-9" points="308.81 395.02 312.15 357.65 410.23 361.66 411.89 394.35 308.81 395.02"/>
  <path class="cls-3" d="M360.42,149.56c-2.15,13.16.29,12.37,10.65,17.6,0,0-1.09-11.08-1.09-11.73,5.6,12.14,5.21,14.68,17.82,23.69,1.11,4.01,2.91,1.77,4.56.22,11.59-3.26,2,15.14-1.96,15.43-2.61.43-4.56.22-4.56.22-.37,1.2-5.5,16.03-4.13,19.34,5.5,5.2,26.28,11.59,32.16,14.56l-20.64,57.8,21.3,76.27c-14.21,6.21-86.76,7.27-105.39-4.78l25.86-73.23-9.34-62.8,34.33-6.3.65-7.82c-14.87-3.81-13.44-17.38-11.3-29.12,1.43-10.23-4.38-22.99,11.08-29.34Z"/>
  <g>
    <path class="cls-4" d="M345.1,276.56s23.56,14.13,24.5,14.45"/>
    <line class="cls-4" x1="354.53" y1="285.67" x2="371.17" y2="296.97"/>
  </g>
  <g>
    <path class="cls-2" d="M390.42,219.41c-3.67-1.71-8.4-4.21-8.7-5.1-1.37-3.26,3.75-18.2,4.13-19.34,0,0,1.96.22,4.56-.22,3.96-.3,13.55-18.68,1.96-15.43-1.67,1.59-3.47,3.75-4.56-.22-12.66-9.03-12.26-11.66-17.82-23.69,0,.65,1.09,11.74,1.09,11.74-10.42-5.25-12.78-4.48-10.65-17.6-15.46,6.35-9.65,19.1-11.08,29.34-2.09,11.93-3.69,25.15,11.3,29.12l-.65,7.82-9.6,1.76-4.47,25.65,35.48,2.51,9.02-26.35Z"/>
    <line class="cls-4" x1="359.99" y1="215.84" x2="359.7" y2="222.58"/>
    <path class="cls-4" d="M381.88,201.17s-4.8,4.56-12.47,5.28"/>
    <path class="cls-4" d="M358.47,191.71s6.74,2.61,12.17-3.04"/>
    <path class="cls-4" d="M361.08,168.7c2.14,8.33-11.76,16.55,2.21,15.76"/>
    <path class="cls-9" d="M357.41,172.97c.03,3.2-3.08,3.2-3.05,0-.03-3.2,3.08-3.2,3.05,0Z"/>
    <path class="cls-9" d="M371.97,174.49c.03,3.2-3.08,3.2-3.05,0-.03-3.2,3.08-3.2,3.05,0Z"/>
    <path class="cls-4" d="M353.18,167.45s3.52-2.58,6.34-1.17"/>
    <path class="cls-4" d="M368.68,166.98s5.17-.7,7.05,3.52"/>
  </g>
  <g>
    <path class="cls-2" d="M325.66,222.14l-4.04,28.1-12.33,25.64-24.55-36.82c-1-8.51-2.52-9.26-11.18-13.41-2.79-1.96-4.75-8.1-6.98-5.87-2.24,2.24-.84,6.15,0,7.26.84,1.12,7.26,6.43,7.26,6.43l-15.65,5.03s-12.29-5.87-13.41-3.63c-1.12,2.24,8.94,12.85,12.85,13.97,3.91,1.12,19.56-1.4,19.56-1.4,2.8,5.85,20.29,54.34,31.57,58.11,1.12-.28,25.31-25.76,25.31-25.76l-8.41-57.66Z"/>
    <path class="cls-4" d="M279.14,242.82s-4.13-2.92-5.59-2.92-16.04,2.43-16.04,2.43c0,0-7.54-4.13-8.99-3.4"/>
  </g>
  <path class="cls-3" d="M320.69,293.96c6.72-6.82,13.37-14.16,13.37-14.16l-8.41-57.66-4.04,28.1-12.33,25.64,11.41,18.08Z"/>
  <g>
    <path class="cls-2" d="M418.91,256.92c1.28-17.92,2.78-12.72,15.8-20.66.97-1.7,2.43-.97,2.19,1.21-.24,2.19-2.92,5.35-3.65,5.59-.73.24-4.38,2.43-4.38,2.43,0,0,2.92,2.43,3.65,2.67.73.24,10.21,2.19,10.21,2.19,0,0,9.48-7.78,9.48-5.83s-6.32,13.86-7.05,15.31c-3.35,2.98-17.71,2.63-20.9,3.4-1.8,5.02.09,42.22-9.48,47.4-2.19,1.46-14.34-8.99-14.1-12.88,2.26-9,16.13-36.03,18.23-40.84Z"/>
    <path class="cls-4" d="M421.96,259s2.29-4.76,5.7-4.03c3.4.73,13.61,1.94,13.61,1.94,0,0,4.62-6.08,6.56-6.32"/>
  </g>
  <path class="cls-9" d="M566.7,291.49c-110.47.79-71.18-16.45-102.16,103.53h97.44l18.21-86.92c1.79-8.56-4.74-16.61-13.49-16.61Z"/>
  <path class="cls-2" d="M484,287.97l-44.35,21.01-12.73,56.87c-5.16.33-6.59.56-5.52,6.15-5.49-.45-4.81,9.36-3.61,12.31.64,1.7,7,9.55,8.91,9.76,1.91.21,4.24.64,4.88.85s108.86,0,108.86,0c0,0,4.24-.42,5.31-1.27,1.06-.85,1.27-2.76,1.27-2.76,0,0,2.97-2.33,3.18-3.82.21-1.49-1.06-10.61-1.06-12.52-1.01-5.76,11.75-61.98,6.16-67.48-5.55-5.06-34.79-17.38-40.4-19.84,0,0-30.9.74-30.9.74Z"/>
  <path class="cls-5" d="M488.67,325.84c1.09-.55,24.95-28.54,31.73-36.51-5.25-4.1-30.48-1.3-36.4-1.69,0,0-8.77,4.52-8.77,4.52,2.65,6.36,10.78,34.84,13.44,33.68Z"/>
  <g>
    <path class="cls-2" d="M479.31,224.82s-8.17,9.73-8.17,13.38,1.56,7.64-.17,9.73c-6.47,5.57-14.98,7.06-4.69,13.38l-.35,5.56s3.47,13.55,5.39,14.25,7.99.52,7.99.52c11.7,44.97,6.03,33.08,34.6,5.36l-.9-10.23s9.03-14.77,11.47-21.54-2.43-20.85-9.38-27.28c-10.13-8.39-28.81-9.1-35.79-3.13Z"/>
    <path class="cls-7" d="M474.31,239.61s4.48-1.42,7.61,1.36"/>
    <path class="cls-9" d="M479.25,247.96c-.96,3.01-3.32,2.23-2.31-.76.96-3.01,3.32-2.23,2.31.76Z"/>
    <path class="cls-9" d="M480.53,216.66c-34.12,5.68,10.65,12.67,17.2,16.16,4.52,1.56-7.64,4.34-5.91,5.73,1.74,1.39,5.21,7.99,5.21,7.99-.49,12.99-5.54,18.49-15.81,24.32,0,0-5.56-7.47-8.51-7.47s-7.12.69-6.78,3.47c.35,2.78,1.56,10.25,1.74,10.94.17.69-2.08,7.64.35,9.21,2.43,1.56,14.94-3.47,20.5-5.91,5.56-2.43,8.17-3.65,8.51-7.12.35-3.47,5.73-19.11,5.73-19.11,0,0,3.65-2.43,6.95-1.91,3.3.52,3.3,7.82.35,10.42-2.95,2.61-6.78,5.21-6.78,5.21l9.73,8.17s21.37-21.54,21.72-29.88c.35-8.34-10.25-23.11-14.77-27.8-4.52-4.69-30.58-5.91-39.44-2.43Z"/>
    <g>
      <path class="cls-2" d="M466.12,269.06s5.53-2.1,7.1-1.81c2.92.55,5.76,3.65,4.74,6.03-.7,2.47-5.58,7.56-7.46,5.69-.11-1.33-3.13-3.25-2.84-1.17,0,0-.9-7.45-1.55-8.75Z"/>
      <path class="cls-4" d="M468.06,271.42s3.02.14,6.61-1.87"/>
    </g>
  </g>
  <g>
    <path class="cls-4" d="M424.37,372.31s8.7,1.27,12.31,9.34"/>
    <path class="cls-4" d="M429.89,368.07s7.21,1.91,9.55,4.88"/>
  </g>
  <g>
    <path class="cls-4" d="M525.43,332.67l-6.2,36.67c-14.34,2.38-9.68,6.85-4.46,15.28"/>
    <line class="cls-4" x1="526.44" y1="326.05" x2="526.05" y2="328.38"/>
    <path class="cls-4" d="M537.33,364.99c1.06.03,2.11.13,3.12.32"/>
    <path class="cls-4" d="M521.77,367.85s6.06-2.3,12.49-2.79"/>
    <path class="cls-4" d="M537.9,370.61s7,2.97,9.76,12.52"/>
  </g>
  <g>
    <path class="cls-2" d="M540.45,394.59c1.64-4.95-11.17-22.37-17.83-19.52-1.48.64-41.8,15.28-41.8,15.28-30.24-14.87-21.87-20.65-42.44,4.46l102.07-.21Z"/>
    <line class="cls-4" x1="444.11" y1="394.8" x2="457.48" y2="380.8"/>
    <line class="cls-4" x1="451.32" y1="394.17" x2="463.42" y2="383.34"/>
    <line class="cls-4" x1="460.66" y1="395.02" x2="468.93" y2="386.95"/>
    <line class="cls-4" x1="470" y1="394.38" x2="473.39" y2="391.62"/>
  </g>
  <line class="cls-4" x1="448.5" y1="325.12" x2="449.2" y2="320.32"/>
  <line class="cls-4" x1="438.38" y1="394.8" x2="447.6" y2="331.33"/>
  <g>
    <path class="cls-2" d="M433.92,394.8c-2.66-32.87-34.78-6.9-47.96.21l47.96-.21Z"/>
    <g>
      <path class="cls-2" d="M405.91,387.16c-16.17-14.2-22.75-12.95-28.44,7.64h20.58l7.85-7.64Z"/>
      <path class="cls-2" d="M402.94,384.83s-7.64,8.49-6.79,9.12c.85.64,4.88.42,4.88.42,0,0,7-5.31,7.21-6.79.21-1.49-5.31-2.76-5.31-2.76Z"/>
      <path class="cls-2" d="M393.6,379.95l-7.64,15.07-4.24-.85s4.67-14.43,5.31-15.92c.64-1.49,4.03-1.91,7,0"/>
      <path class="cls-2" d="M387.02,378.25s-6.3-.71-7.24.76-2.31,15.79-2.31,15.79l4.24-.64,5.31-15.92Z"/>
      <path class="cls-2" d="M379.05,379.75s-5.03,1.68-5.24,3.04c-.21,1.36.1,11.73.1,11.73l3.56.29,1.57-15.06Z"/>
      <path class="cls-2" d="M373.71,384.25s-4.92,3.67-5.24,4.5c-.31.84-2.93,3.77-1.89,3.98,2.66-.51,4.87-3.14,6.91-3.56l.21-4.92Z"/>
    </g>
  </g>
  <line class="cls-4" x1="657.09" y1="395.02" x2=".9" y2="395.02"/>
  <rect class="cls-8" x="369.7" y="392.93" width="71.59" height="2.09"/>
  <polygon class="cls-5" points="357.24 337.09 271.64 337.09 285.27 395.02 370.87 395.02 357.24 337.09"/>
  <path class="cls-6" d="M322.17,367.14c.1,7.01-10.91,7.01-10.81,0-.1-7.01,10.91-7.01,10.81,0Z"/>
  <g>
    <path class="cls-3" d="M73.79,365.7c-11.99-8.22-15.49,12.03-8.98,20.73,2.52,2.78,9.21.46,9.21.46l.46-6.68c-9.71,9.11-9.41-18,.23-9.21l-.92-5.3Z"/>
    <g>
      <path class="cls-4" d="M76.6,353.26s8.38-3.55,8.38-10.32-4.19-6.77-4.84-11.61"/>
      <path class="cls-4" d="M86.59,331c-1.09,6.48,10.92,8.61,3.87,18.06"/>
      <path class="cls-4" d="M87.88,327.46s.97-2.26,3.22-3.22"/>
    </g>
    <rect class="cls-3" x="72.51" y="356.27" width="31.2" height="38.75"/>
  </g>
  <g>
    <path class="cls-9" d="M114.38,64.36h-1.47v-9.48h-20.1v9.48c-16.32-.89-29.46,13.13-28.12,29.31h76.34c1.24-15.59-10.84-29.39-26.65-29.31Z"/>
    <line class="cls-4" x1="102.86" y1="56.18" x2="102.86" y2=".5"/>
  </g>
  <path class="cls-9" d="M420.77,64.36h-1.47v-9.48h-20.1v9.48c-16.32-.89-29.45,13.13-28.12,29.31h76.34c1.24-15.59-10.84-29.39-26.65-29.31Z"/>
  <line class="cls-4" x1="409.26" y1="56.18" x2="409.26" y2=".5"/>
  <g>
    <path class="cls-2" d="M322.95,101.28h-48.82c-6.12,0-11.07,4.96-11.07,11.07v20.59c0,6.12,4.96,11.07,11.07,11.07h38.41l8.76,10.82v-10.82c6.65.69,12.77-4.24,12.72-11.07-.85-9.43,4.45-31.8-11.07-31.67Z"/>
    <g>
      <path class="cls-3" d="M287.41,122.37c.06,3.91-6.08,3.91-6.03,0-.06-3.91,6.08-3.91,6.03,0Z"/>
      <path class="cls-3" d="M301.55,122.37c.06,3.91-6.08,3.91-6.03,0-.06-3.91,6.08-3.91,6.03,0Z"/>
      <path class="cls-3" d="M315.69,122.37c.06,3.91-6.08,3.91-6.03,0-.06-3.91,6.08-3.91,6.03,0Z"/>
    </g>
  </g>
</svg>